# xmcd
# Track frame offsets:
# 150
# 17315
# 35854
# 52317
# 70368
# 87267
# 105747
# 121477
# 137505
# 155932
# 173040
# 191582
# 207202
# 221913
#
# Disc length: 3188 seconds
# Revision: 0
# Processed by: cddbd v1.5.2PL0 Copyright (c) Steve Scherf et al.
# Submitted via: VisiTrax 2.11.2.271 - For more info visit www.synapsa.com
#
DISCID=d40c720e
DTITLE=Sunny Cowgirls, The - What We Do
DYEAR=2013
DGENRE=Country
TTITLE0=Green and Gold
TTITLE1=Good Way
TTITLE2=One More Run
TTITLE3=Kids Forever
TTITLE4=All Nighter
TTITLE5=Like Her
TTITLE6=Gonna Drive
TTITLE7=Go You Good Thing
TTITLE8=Winter Blues
TTITLE9=Bring Your 'A' Game
TTITLE10=What We Do
TTITLE11=Blue Desert
TTITLE12=Celebrate
TTITLE13=Thank You
EXTD=
EXTT0=
EXTT1=
EXTT2=
EXTT3=
EXTT4=
EXTT5=
EXTT6=
EXTT7=
EXTT8=
EXTT9=
EXTT10=
EXTT11=
EXTT12=
EXTT13=
PLAYORDER=
